<mxfile host="Electron" agent="Mozilla/5.0 (Windows NT 10.0; Win64; x64) AppleWebKit/537.36 (KHTML, like Gecko) draw.io/24.7.5 Chrome/126.0.6478.183 Electron/31.3.0 Safari/537.36" version="24.7.5">
  <diagram name="第 1 页" id="9XboSxt31m4KtemLiGmE">
    <mxGraphModel dx="2399" dy="1175" grid="1" gridSize="10" guides="1" tooltips="1" connect="1" arrows="1" fold="1" page="1" pageScale="1" pageWidth="827" pageHeight="1169" math="0" shadow="0">
      <root>
        <mxCell id="0" />
        <mxCell id="1" parent="0" />
        <mxCell id="56TDXl3lNBqsKm2BIv-D-140" style="rounded=0;orthogonalLoop=1;jettySize=auto;html=1;exitX=0;exitY=1;exitDx=0;exitDy=0;entryX=1;entryY=0;entryDx=0;entryDy=0;" edge="1" parent="1" source="56TDXl3lNBqsKm2BIv-D-145" target="56TDXl3lNBqsKm2BIv-D-161">
          <mxGeometry relative="1" as="geometry" />
        </mxCell>
        <mxCell id="56TDXl3lNBqsKm2BIv-D-141" style="rounded=0;orthogonalLoop=1;jettySize=auto;html=1;exitX=0.25;exitY=1;exitDx=0;exitDy=0;entryX=0.5;entryY=0;entryDx=0;entryDy=0;" edge="1" parent="1" source="56TDXl3lNBqsKm2BIv-D-145" target="56TDXl3lNBqsKm2BIv-D-165">
          <mxGeometry relative="1" as="geometry" />
        </mxCell>
        <mxCell id="56TDXl3lNBqsKm2BIv-D-142" style="rounded=0;orthogonalLoop=1;jettySize=auto;html=1;exitX=0.5;exitY=1;exitDx=0;exitDy=0;entryX=0.5;entryY=0;entryDx=0;entryDy=0;" edge="1" parent="1" source="56TDXl3lNBqsKm2BIv-D-145" target="56TDXl3lNBqsKm2BIv-D-169">
          <mxGeometry relative="1" as="geometry" />
        </mxCell>
        <mxCell id="56TDXl3lNBqsKm2BIv-D-143" style="rounded=0;orthogonalLoop=1;jettySize=auto;html=1;exitX=0.75;exitY=1;exitDx=0;exitDy=0;entryX=0.5;entryY=0;entryDx=0;entryDy=0;" edge="1" parent="1" source="56TDXl3lNBqsKm2BIv-D-145" target="56TDXl3lNBqsKm2BIv-D-171">
          <mxGeometry relative="1" as="geometry" />
        </mxCell>
        <mxCell id="56TDXl3lNBqsKm2BIv-D-144" style="rounded=0;orthogonalLoop=1;jettySize=auto;html=1;exitX=1;exitY=1;exitDx=0;exitDy=0;entryX=0;entryY=0;entryDx=0;entryDy=0;" edge="1" parent="1" source="56TDXl3lNBqsKm2BIv-D-145" target="56TDXl3lNBqsKm2BIv-D-173">
          <mxGeometry relative="1" as="geometry" />
        </mxCell>
        <mxCell id="56TDXl3lNBqsKm2BIv-D-145" value="" style="rounded=0;whiteSpace=wrap;html=1;strokeWidth=0;" vertex="1" parent="1">
          <mxGeometry x="230" y="240" width="50" height="40" as="geometry" />
        </mxCell>
        <mxCell id="56TDXl3lNBqsKm2BIv-D-146" value="&lt;font style=&quot;font-size: 40px;&quot;&gt;∅&lt;/font&gt;" style="text;html=1;align=center;verticalAlign=middle;resizable=0;points=[];autosize=1;strokeColor=none;fillColor=none;" vertex="1" parent="1">
          <mxGeometry x="230" y="223" width="50" height="60" as="geometry" />
        </mxCell>
        <mxCell id="56TDXl3lNBqsKm2BIv-D-147" style="edgeStyle=orthogonalEdgeStyle;rounded=0;orthogonalLoop=1;jettySize=auto;html=1;exitX=1;exitY=0.5;exitDx=0;exitDy=0;entryX=0;entryY=0.5;entryDx=0;entryDy=0;endArrow=none;endFill=0;" edge="1" parent="1" source="56TDXl3lNBqsKm2BIv-D-149" target="56TDXl3lNBqsKm2BIv-D-151">
          <mxGeometry relative="1" as="geometry" />
        </mxCell>
        <mxCell id="56TDXl3lNBqsKm2BIv-D-148" style="edgeStyle=orthogonalEdgeStyle;rounded=0;orthogonalLoop=1;jettySize=auto;html=1;exitX=0.5;exitY=1;exitDx=0;exitDy=0;entryX=0.5;entryY=0;entryDx=0;entryDy=0;endArrow=none;endFill=0;" edge="1" parent="1" source="56TDXl3lNBqsKm2BIv-D-149" target="56TDXl3lNBqsKm2BIv-D-153">
          <mxGeometry relative="1" as="geometry" />
        </mxCell>
        <mxCell id="56TDXl3lNBqsKm2BIv-D-149" value="&lt;font style=&quot;font-size: 17px;&quot;&gt;1&lt;/font&gt;" style="ellipse;whiteSpace=wrap;html=1;aspect=fixed;" vertex="1" parent="1">
          <mxGeometry x="-112" y="243" width="40" height="40" as="geometry" />
        </mxCell>
        <mxCell id="56TDXl3lNBqsKm2BIv-D-150" style="rounded=0;orthogonalLoop=1;jettySize=auto;html=1;exitX=0;exitY=1;exitDx=0;exitDy=0;entryX=1;entryY=0;entryDx=0;entryDy=0;endArrow=none;endFill=0;" edge="1" parent="1" source="56TDXl3lNBqsKm2BIv-D-151" target="56TDXl3lNBqsKm2BIv-D-153">
          <mxGeometry relative="1" as="geometry" />
        </mxCell>
        <mxCell id="56TDXl3lNBqsKm2BIv-D-151" value="&lt;font style=&quot;font-size: 17px;&quot;&gt;2&lt;/font&gt;" style="ellipse;whiteSpace=wrap;html=1;aspect=fixed;" vertex="1" parent="1">
          <mxGeometry x="-22" y="243" width="40" height="40" as="geometry" />
        </mxCell>
        <mxCell id="56TDXl3lNBqsKm2BIv-D-152" style="edgeStyle=orthogonalEdgeStyle;rounded=0;orthogonalLoop=1;jettySize=auto;html=1;exitX=1;exitY=0.5;exitDx=0;exitDy=0;entryX=0;entryY=0.5;entryDx=0;entryDy=0;endArrow=none;endFill=0;" edge="1" parent="1" source="56TDXl3lNBqsKm2BIv-D-153" target="56TDXl3lNBqsKm2BIv-D-156">
          <mxGeometry relative="1" as="geometry" />
        </mxCell>
        <mxCell id="56TDXl3lNBqsKm2BIv-D-153" value="&lt;font style=&quot;font-size: 17px;&quot;&gt;3&lt;/font&gt;" style="ellipse;whiteSpace=wrap;html=1;aspect=fixed;" vertex="1" parent="1">
          <mxGeometry x="-112" y="323" width="40" height="40" as="geometry" />
        </mxCell>
        <mxCell id="56TDXl3lNBqsKm2BIv-D-154" style="edgeStyle=orthogonalEdgeStyle;rounded=0;orthogonalLoop=1;jettySize=auto;html=1;exitX=0.5;exitY=0;exitDx=0;exitDy=0;entryX=0.5;entryY=1;entryDx=0;entryDy=0;endArrow=none;endFill=0;" edge="1" parent="1" source="56TDXl3lNBqsKm2BIv-D-156" target="56TDXl3lNBqsKm2BIv-D-151">
          <mxGeometry relative="1" as="geometry" />
        </mxCell>
        <mxCell id="56TDXl3lNBqsKm2BIv-D-155" style="rounded=0;orthogonalLoop=1;jettySize=auto;html=1;exitX=1;exitY=0;exitDx=0;exitDy=0;entryX=0;entryY=1;entryDx=0;entryDy=0;endArrow=none;endFill=0;" edge="1" parent="1" source="56TDXl3lNBqsKm2BIv-D-156" target="56TDXl3lNBqsKm2BIv-D-157">
          <mxGeometry relative="1" as="geometry" />
        </mxCell>
        <mxCell id="56TDXl3lNBqsKm2BIv-D-156" value="&lt;font style=&quot;font-size: 17px;&quot;&gt;4&lt;/font&gt;" style="ellipse;whiteSpace=wrap;html=1;aspect=fixed;" vertex="1" parent="1">
          <mxGeometry x="-22" y="323" width="40" height="40" as="geometry" />
        </mxCell>
        <mxCell id="56TDXl3lNBqsKm2BIv-D-157" value="&lt;font style=&quot;font-size: 17px;&quot;&gt;5&lt;/font&gt;" style="ellipse;whiteSpace=wrap;html=1;aspect=fixed;" vertex="1" parent="1">
          <mxGeometry x="38" y="266" width="40" height="40" as="geometry" />
        </mxCell>
        <mxCell id="56TDXl3lNBqsKm2BIv-D-158" value="&lt;font style=&quot;font-size: 18px;&quot;&gt;level 0&lt;/font&gt;" style="text;html=1;align=center;verticalAlign=middle;resizable=0;points=[];autosize=1;strokeColor=none;fillColor=none;" vertex="1" parent="1">
          <mxGeometry x="320" y="243" width="80" height="40" as="geometry" />
        </mxCell>
        <mxCell id="56TDXl3lNBqsKm2BIv-D-159" style="rounded=0;orthogonalLoop=1;jettySize=auto;html=1;exitX=0;exitY=1;exitDx=0;exitDy=0;endArrow=none;endFill=0;" edge="1" parent="1" source="56TDXl3lNBqsKm2BIv-D-161">
          <mxGeometry relative="1" as="geometry">
            <mxPoint x="-100" y="450" as="targetPoint" />
          </mxGeometry>
        </mxCell>
        <mxCell id="56TDXl3lNBqsKm2BIv-D-160" style="rounded=0;orthogonalLoop=1;jettySize=auto;html=1;exitX=0.5;exitY=1;exitDx=0;exitDy=0;endArrow=none;endFill=0;" edge="1" parent="1" source="56TDXl3lNBqsKm2BIv-D-161">
          <mxGeometry relative="1" as="geometry">
            <mxPoint y="450" as="targetPoint" />
          </mxGeometry>
        </mxCell>
        <mxCell id="56TDXl3lNBqsKm2BIv-D-161" value="&lt;font style=&quot;font-size: 17px;&quot;&gt;1&lt;/font&gt;" style="ellipse;whiteSpace=wrap;html=1;aspect=fixed;fillColor=#dae8fc;strokeColor=#6c8ebf;" vertex="1" parent="1">
          <mxGeometry x="20" y="370" width="40" height="40" as="geometry" />
        </mxCell>
        <mxCell id="56TDXl3lNBqsKm2BIv-D-162" style="rounded=0;orthogonalLoop=1;jettySize=auto;html=1;exitX=0;exitY=1;exitDx=0;exitDy=0;endArrow=none;endFill=0;" edge="1" parent="1" source="56TDXl3lNBqsKm2BIv-D-165">
          <mxGeometry relative="1" as="geometry">
            <mxPoint x="110" y="450" as="targetPoint" />
          </mxGeometry>
        </mxCell>
        <mxCell id="56TDXl3lNBqsKm2BIv-D-163" style="rounded=0;orthogonalLoop=1;jettySize=auto;html=1;exitX=0.5;exitY=1;exitDx=0;exitDy=0;endArrow=none;endFill=0;" edge="1" parent="1" source="56TDXl3lNBqsKm2BIv-D-165">
          <mxGeometry relative="1" as="geometry">
            <mxPoint x="200" y="450" as="targetPoint" />
          </mxGeometry>
        </mxCell>
        <mxCell id="56TDXl3lNBqsKm2BIv-D-164" style="rounded=0;orthogonalLoop=1;jettySize=auto;html=1;exitX=1;exitY=1;exitDx=0;exitDy=0;endArrow=none;endFill=0;" edge="1" parent="1" source="56TDXl3lNBqsKm2BIv-D-165">
          <mxGeometry relative="1" as="geometry">
            <mxPoint x="290" y="450" as="targetPoint" />
          </mxGeometry>
        </mxCell>
        <mxCell id="56TDXl3lNBqsKm2BIv-D-165" value="&lt;font style=&quot;font-size: 17px;&quot;&gt;2&lt;/font&gt;" style="ellipse;whiteSpace=wrap;html=1;aspect=fixed;fillColor=#dae8fc;strokeColor=#6c8ebf;" vertex="1" parent="1">
          <mxGeometry x="130" y="370" width="40" height="40" as="geometry" />
        </mxCell>
        <mxCell id="56TDXl3lNBqsKm2BIv-D-166" style="rounded=0;orthogonalLoop=1;jettySize=auto;html=1;exitX=0.5;exitY=1;exitDx=0;exitDy=0;endArrow=none;endFill=0;" edge="1" parent="1" source="56TDXl3lNBqsKm2BIv-D-169">
          <mxGeometry relative="1" as="geometry">
            <mxPoint x="480" y="450" as="targetPoint" />
          </mxGeometry>
        </mxCell>
        <mxCell id="56TDXl3lNBqsKm2BIv-D-168" style="rounded=0;orthogonalLoop=1;jettySize=auto;html=1;exitX=0;exitY=1;exitDx=0;exitDy=0;endArrow=none;endFill=0;" edge="1" parent="1" source="56TDXl3lNBqsKm2BIv-D-169">
          <mxGeometry relative="1" as="geometry">
            <mxPoint x="340" y="450" as="targetPoint" />
          </mxGeometry>
        </mxCell>
        <mxCell id="56TDXl3lNBqsKm2BIv-D-169" value="&lt;font style=&quot;font-size: 17px;&quot;&gt;3&lt;/font&gt;" style="ellipse;whiteSpace=wrap;html=1;aspect=fixed;fillColor=#dae8fc;strokeColor=#6c8ebf;" vertex="1" parent="1">
          <mxGeometry x="235" y="370" width="45" height="45" as="geometry" />
        </mxCell>
        <mxCell id="56TDXl3lNBqsKm2BIv-D-170" style="rounded=0;orthogonalLoop=1;jettySize=auto;html=1;exitX=1;exitY=1;exitDx=0;exitDy=0;endArrow=none;endFill=0;" edge="1" parent="1" source="56TDXl3lNBqsKm2BIv-D-171">
          <mxGeometry relative="1" as="geometry">
            <mxPoint x="540" y="450" as="targetPoint" />
          </mxGeometry>
        </mxCell>
        <mxCell id="56TDXl3lNBqsKm2BIv-D-171" value="&lt;font style=&quot;font-size: 17px;&quot;&gt;4&lt;/font&gt;" style="ellipse;whiteSpace=wrap;html=1;aspect=fixed;fillColor=#dae8fc;strokeColor=#6c8ebf;" vertex="1" parent="1">
          <mxGeometry x="340" y="370" width="40" height="40" as="geometry" />
        </mxCell>
        <mxCell id="56TDXl3lNBqsKm2BIv-D-172" style="rounded=0;orthogonalLoop=1;jettySize=auto;html=1;exitX=1;exitY=1;exitDx=0;exitDy=0;endArrow=none;endFill=0;" edge="1" parent="1" source="56TDXl3lNBqsKm2BIv-D-173">
          <mxGeometry relative="1" as="geometry">
            <mxPoint x="590" y="450" as="targetPoint" />
          </mxGeometry>
        </mxCell>
        <mxCell id="56TDXl3lNBqsKm2BIv-D-173" value="&lt;font style=&quot;font-size: 17px;&quot;&gt;5&lt;/font&gt;" style="ellipse;whiteSpace=wrap;html=1;aspect=fixed;fillColor=#dae8fc;strokeColor=#6c8ebf;" vertex="1" parent="1">
          <mxGeometry x="450" y="370" width="40" height="40" as="geometry" />
        </mxCell>
        <mxCell id="56TDXl3lNBqsKm2BIv-D-174" style="edgeStyle=orthogonalEdgeStyle;rounded=0;orthogonalLoop=1;jettySize=auto;html=1;exitX=1;exitY=0.5;exitDx=0;exitDy=0;entryX=0;entryY=0.5;entryDx=0;entryDy=0;endArrow=none;endFill=0;" edge="1" parent="1" source="56TDXl3lNBqsKm2BIv-D-175" target="56TDXl3lNBqsKm2BIv-D-176">
          <mxGeometry relative="1" as="geometry" />
        </mxCell>
        <mxCell id="56TDXl3lNBqsKm2BIv-D-175" value="&lt;font style=&quot;font-size: 17px;&quot;&gt;1&lt;/font&gt;" style="ellipse;whiteSpace=wrap;html=1;aspect=fixed;fillColor=#dae8fc;strokeColor=#6c8ebf;" vertex="1" parent="1">
          <mxGeometry x="-143" y="450" width="30" height="30" as="geometry" />
        </mxCell>
        <mxCell id="56TDXl3lNBqsKm2BIv-D-176" value="&lt;font style=&quot;font-size: 17px;&quot;&gt;2&lt;/font&gt;" style="ellipse;whiteSpace=wrap;html=1;aspect=fixed;fillColor=#fff2cc;strokeColor=#d6b656;" vertex="1" parent="1">
          <mxGeometry x="-93" y="450" width="30" height="30" as="geometry" />
        </mxCell>
        <mxCell id="56TDXl3lNBqsKm2BIv-D-177" style="edgeStyle=orthogonalEdgeStyle;rounded=0;orthogonalLoop=1;jettySize=auto;html=1;exitX=1;exitY=0.5;exitDx=0;exitDy=0;entryX=0;entryY=0.5;entryDx=0;entryDy=0;endArrow=none;endFill=0;" edge="1" parent="1" source="56TDXl3lNBqsKm2BIv-D-178" target="56TDXl3lNBqsKm2BIv-D-179">
          <mxGeometry relative="1" as="geometry" />
        </mxCell>
        <mxCell id="56TDXl3lNBqsKm2BIv-D-178" value="&lt;font style=&quot;font-size: 17px;&quot;&gt;1&lt;/font&gt;" style="ellipse;whiteSpace=wrap;html=1;aspect=fixed;fillColor=#dae8fc;strokeColor=#6c8ebf;" vertex="1" parent="1">
          <mxGeometry x="-43" y="450" width="30" height="30" as="geometry" />
        </mxCell>
        <mxCell id="56TDXl3lNBqsKm2BIv-D-179" value="&lt;font style=&quot;font-size: 17px;&quot;&gt;3&lt;/font&gt;" style="ellipse;whiteSpace=wrap;html=1;aspect=fixed;fillColor=#fff2cc;strokeColor=#d6b656;" vertex="1" parent="1">
          <mxGeometry x="7" y="450" width="30" height="30" as="geometry" />
        </mxCell>
        <mxCell id="56TDXl3lNBqsKm2BIv-D-180" style="edgeStyle=orthogonalEdgeStyle;rounded=0;orthogonalLoop=1;jettySize=auto;html=1;exitX=1;exitY=0.5;exitDx=0;exitDy=0;entryX=0;entryY=0.5;entryDx=0;entryDy=0;endArrow=none;endFill=0;" edge="1" parent="1" source="56TDXl3lNBqsKm2BIv-D-182" target="56TDXl3lNBqsKm2BIv-D-184">
          <mxGeometry relative="1" as="geometry" />
        </mxCell>
        <mxCell id="56TDXl3lNBqsKm2BIv-D-182" value="&lt;font style=&quot;font-size: 17px;&quot;&gt;2&lt;/font&gt;" style="ellipse;whiteSpace=wrap;html=1;aspect=fixed;fillColor=#dae8fc;strokeColor=#6c8ebf;" vertex="1" parent="1">
          <mxGeometry x="73" y="450" width="30" height="30" as="geometry" />
        </mxCell>
        <mxCell id="56TDXl3lNBqsKm2BIv-D-184" value="&lt;font style=&quot;font-size: 17px;&quot;&gt;1&lt;/font&gt;" style="ellipse;whiteSpace=wrap;html=1;aspect=fixed;fillColor=#fff2cc;strokeColor=#d6b656;" vertex="1" parent="1">
          <mxGeometry x="123" y="450" width="30" height="30" as="geometry" />
        </mxCell>
        <mxCell id="56TDXl3lNBqsKm2BIv-D-185" style="edgeStyle=orthogonalEdgeStyle;rounded=0;orthogonalLoop=1;jettySize=auto;html=1;exitX=1;exitY=0.5;exitDx=0;exitDy=0;entryX=0;entryY=0.5;entryDx=0;entryDy=0;endArrow=none;endFill=0;" edge="1" parent="1" source="56TDXl3lNBqsKm2BIv-D-186" target="56TDXl3lNBqsKm2BIv-D-187">
          <mxGeometry relative="1" as="geometry" />
        </mxCell>
        <mxCell id="56TDXl3lNBqsKm2BIv-D-186" value="&lt;font style=&quot;font-size: 17px;&quot;&gt;2&lt;/font&gt;" style="ellipse;whiteSpace=wrap;html=1;aspect=fixed;fillColor=#dae8fc;strokeColor=#6c8ebf;" vertex="1" parent="1">
          <mxGeometry x="249" y="450" width="30" height="30" as="geometry" />
        </mxCell>
        <mxCell id="56TDXl3lNBqsKm2BIv-D-187" value="&lt;font style=&quot;font-size: 17px;&quot;&gt;4&lt;/font&gt;" style="ellipse;whiteSpace=wrap;html=1;aspect=fixed;fillColor=#fff2cc;strokeColor=#d6b656;" vertex="1" parent="1">
          <mxGeometry x="299" y="450" width="30" height="30" as="geometry" />
        </mxCell>
        <mxCell id="56TDXl3lNBqsKm2BIv-D-188" style="edgeStyle=orthogonalEdgeStyle;rounded=0;orthogonalLoop=1;jettySize=auto;html=1;exitX=1;exitY=0.5;exitDx=0;exitDy=0;entryX=0;entryY=0.5;entryDx=0;entryDy=0;endArrow=none;endFill=0;" edge="1" parent="1" source="56TDXl3lNBqsKm2BIv-D-189" target="56TDXl3lNBqsKm2BIv-D-190">
          <mxGeometry relative="1" as="geometry" />
        </mxCell>
        <mxCell id="56TDXl3lNBqsKm2BIv-D-189" value="&lt;font style=&quot;font-size: 17px;&quot;&gt;2&lt;/font&gt;" style="ellipse;whiteSpace=wrap;html=1;aspect=fixed;fillColor=#dae8fc;strokeColor=#6c8ebf;" vertex="1" parent="1">
          <mxGeometry x="161" y="450" width="30" height="30" as="geometry" />
        </mxCell>
        <mxCell id="56TDXl3lNBqsKm2BIv-D-190" value="&lt;font style=&quot;font-size: 17px;&quot;&gt;3&lt;/font&gt;" style="ellipse;whiteSpace=wrap;html=1;aspect=fixed;fillColor=#fff2cc;strokeColor=#d6b656;" vertex="1" parent="1">
          <mxGeometry x="211" y="450" width="30" height="30" as="geometry" />
        </mxCell>
        <mxCell id="56TDXl3lNBqsKm2BIv-D-191" style="edgeStyle=orthogonalEdgeStyle;rounded=0;orthogonalLoop=1;jettySize=auto;html=1;exitX=1;exitY=0.5;exitDx=0;exitDy=0;entryX=0;entryY=0.5;entryDx=0;entryDy=0;endArrow=none;endFill=0;" edge="1" parent="1" source="56TDXl3lNBqsKm2BIv-D-193" target="56TDXl3lNBqsKm2BIv-D-195">
          <mxGeometry relative="1" as="geometry" />
        </mxCell>
        <mxCell id="56TDXl3lNBqsKm2BIv-D-193" value="&lt;font style=&quot;font-size: 17px;&quot;&gt;3&lt;/font&gt;" style="ellipse;whiteSpace=wrap;html=1;aspect=fixed;fillColor=#dae8fc;strokeColor=#6c8ebf;" vertex="1" parent="1">
          <mxGeometry x="351" y="450" width="30" height="30" as="geometry" />
        </mxCell>
        <mxCell id="56TDXl3lNBqsKm2BIv-D-195" value="&lt;font style=&quot;font-size: 17px;&quot;&gt;1&lt;/font&gt;" style="ellipse;whiteSpace=wrap;html=1;aspect=fixed;fillColor=#fff2cc;strokeColor=#d6b656;" vertex="1" parent="1">
          <mxGeometry x="401" y="450" width="30" height="30" as="geometry" />
        </mxCell>
        <mxCell id="56TDXl3lNBqsKm2BIv-D-199" style="edgeStyle=orthogonalEdgeStyle;rounded=0;orthogonalLoop=1;jettySize=auto;html=1;exitX=1;exitY=0.5;exitDx=0;exitDy=0;entryX=0;entryY=0.5;entryDx=0;entryDy=0;endArrow=none;endFill=0;" edge="1" parent="1" source="56TDXl3lNBqsKm2BIv-D-201" target="56TDXl3lNBqsKm2BIv-D-203">
          <mxGeometry relative="1" as="geometry" />
        </mxCell>
        <mxCell id="56TDXl3lNBqsKm2BIv-D-201" value="&lt;font style=&quot;font-size: 17px;&quot;&gt;3&lt;/font&gt;" style="ellipse;whiteSpace=wrap;html=1;aspect=fixed;fillColor=#dae8fc;strokeColor=#6c8ebf;" vertex="1" parent="1">
          <mxGeometry x="439" y="450" width="30" height="30" as="geometry" />
        </mxCell>
        <mxCell id="56TDXl3lNBqsKm2BIv-D-203" value="&lt;font style=&quot;font-size: 17px;&quot;&gt;2&lt;/font&gt;" style="ellipse;whiteSpace=wrap;html=1;aspect=fixed;fillColor=#fff2cc;strokeColor=#d6b656;" vertex="1" parent="1">
          <mxGeometry x="489" y="450" width="30" height="30" as="geometry" />
        </mxCell>
        <mxCell id="56TDXl3lNBqsKm2BIv-D-204" value="&lt;font style=&quot;font-size: 20px;&quot;&gt;...&lt;/font&gt;" style="text;html=1;align=center;verticalAlign=middle;resizable=0;points=[];autosize=1;strokeColor=none;fillColor=none;" vertex="1" parent="1">
          <mxGeometry x="520" y="443" width="40" height="40" as="geometry" />
        </mxCell>
        <mxCell id="56TDXl3lNBqsKm2BIv-D-205" value="&lt;font style=&quot;font-size: 20px;&quot;&gt;...&lt;/font&gt;" style="text;html=1;align=center;verticalAlign=middle;resizable=0;points=[];autosize=1;strokeColor=none;fillColor=none;" vertex="1" parent="1">
          <mxGeometry x="570" y="445" width="40" height="40" as="geometry" />
        </mxCell>
        <mxCell id="56TDXl3lNBqsKm2BIv-D-274" style="edgeStyle=orthogonalEdgeStyle;rounded=0;orthogonalLoop=1;jettySize=auto;html=1;exitX=1;exitY=0.5;exitDx=0;exitDy=0;entryX=0;entryY=0.5;entryDx=0;entryDy=0;endArrow=none;endFill=0;" edge="1" parent="1" source="56TDXl3lNBqsKm2BIv-D-277" target="56TDXl3lNBqsKm2BIv-D-279">
          <mxGeometry relative="1" as="geometry" />
        </mxCell>
        <mxCell id="56TDXl3lNBqsKm2BIv-D-275" style="rounded=0;orthogonalLoop=1;jettySize=auto;html=1;exitX=0.5;exitY=1;exitDx=0;exitDy=0;entryX=0.5;entryY=0;entryDx=0;entryDy=0;endArrow=none;endFill=0;" edge="1" parent="1" source="56TDXl3lNBqsKm2BIv-D-277" target="56TDXl3lNBqsKm2BIv-D-281">
          <mxGeometry relative="1" as="geometry" />
        </mxCell>
        <mxCell id="56TDXl3lNBqsKm2BIv-D-276" style="rounded=0;orthogonalLoop=1;jettySize=auto;html=1;exitX=1;exitY=1;exitDx=0;exitDy=0;entryX=0;entryY=0;entryDx=0;entryDy=0;endArrow=none;endFill=0;" edge="1" parent="1" source="56TDXl3lNBqsKm2BIv-D-277" target="56TDXl3lNBqsKm2BIv-D-282">
          <mxGeometry relative="1" as="geometry" />
        </mxCell>
        <mxCell id="56TDXl3lNBqsKm2BIv-D-277" value="&lt;span style=&quot;font-size: 17px;&quot;&gt;1&lt;/span&gt;" style="ellipse;whiteSpace=wrap;html=1;aspect=fixed;" vertex="1" parent="1">
          <mxGeometry x="493" y="243" width="30" height="30" as="geometry" />
        </mxCell>
        <mxCell id="56TDXl3lNBqsKm2BIv-D-278" style="rounded=0;orthogonalLoop=1;jettySize=auto;html=1;exitX=0;exitY=1;exitDx=0;exitDy=0;entryX=1;entryY=0;entryDx=0;entryDy=0;endArrow=none;endFill=0;" edge="1" parent="1" source="56TDXl3lNBqsKm2BIv-D-279" target="56TDXl3lNBqsKm2BIv-D-281">
          <mxGeometry relative="1" as="geometry" />
        </mxCell>
        <mxCell id="56TDXl3lNBqsKm2BIv-D-279" value="&lt;span style=&quot;font-size: 17px;&quot;&gt;2&lt;/span&gt;" style="ellipse;whiteSpace=wrap;html=1;aspect=fixed;" vertex="1" parent="1">
          <mxGeometry x="543" y="243" width="30" height="30" as="geometry" />
        </mxCell>
        <mxCell id="56TDXl3lNBqsKm2BIv-D-280" style="edgeStyle=orthogonalEdgeStyle;rounded=0;orthogonalLoop=1;jettySize=auto;html=1;exitX=1;exitY=0.5;exitDx=0;exitDy=0;entryX=0;entryY=0.5;entryDx=0;entryDy=0;endArrow=none;endFill=0;" edge="1" parent="1" source="56TDXl3lNBqsKm2BIv-D-281" target="56TDXl3lNBqsKm2BIv-D-282">
          <mxGeometry relative="1" as="geometry" />
        </mxCell>
        <mxCell id="56TDXl3lNBqsKm2BIv-D-281" value="&lt;font style=&quot;font-size: 17px;&quot;&gt;3&lt;/font&gt;" style="ellipse;whiteSpace=wrap;html=1;aspect=fixed;" vertex="1" parent="1">
          <mxGeometry x="493" y="303" width="30" height="30" as="geometry" />
        </mxCell>
        <mxCell id="56TDXl3lNBqsKm2BIv-D-282" value="&lt;font style=&quot;font-size: 17px;&quot;&gt;4&lt;/font&gt;" style="ellipse;whiteSpace=wrap;html=1;aspect=fixed;" vertex="1" parent="1">
          <mxGeometry x="543" y="303" width="30" height="30" as="geometry" />
        </mxCell>
        <mxCell id="56TDXl3lNBqsKm2BIv-D-283" value="&lt;font style=&quot;font-size: 20px;&quot;&gt;Query Graph&lt;/font&gt;" style="text;html=1;align=center;verticalAlign=middle;whiteSpace=wrap;rounded=0;" vertex="1" parent="1">
          <mxGeometry x="469" y="345" width="140" height="30" as="geometry" />
        </mxCell>
        <mxCell id="56TDXl3lNBqsKm2BIv-D-284" value="&lt;font style=&quot;font-size: 20px;&quot;&gt;Data Graph&lt;/font&gt;" style="text;html=1;align=center;verticalAlign=middle;whiteSpace=wrap;rounded=0;" vertex="1" parent="1">
          <mxGeometry x="-120" y="373" width="140" height="30" as="geometry" />
        </mxCell>
        <mxCell id="56TDXl3lNBqsKm2BIv-D-308" style="rounded=0;orthogonalLoop=1;jettySize=auto;html=1;exitX=0;exitY=1;exitDx=0;exitDy=0;entryX=1;entryY=0;entryDx=0;entryDy=0;" edge="1" parent="1" source="56TDXl3lNBqsKm2BIv-D-313" target="56TDXl3lNBqsKm2BIv-D-329">
          <mxGeometry relative="1" as="geometry" />
        </mxCell>
        <mxCell id="56TDXl3lNBqsKm2BIv-D-309" style="rounded=0;orthogonalLoop=1;jettySize=auto;html=1;exitX=0.25;exitY=1;exitDx=0;exitDy=0;entryX=0.5;entryY=0;entryDx=0;entryDy=0;" edge="1" parent="1" source="56TDXl3lNBqsKm2BIv-D-313" target="56TDXl3lNBqsKm2BIv-D-333">
          <mxGeometry relative="1" as="geometry" />
        </mxCell>
        <mxCell id="56TDXl3lNBqsKm2BIv-D-310" style="rounded=0;orthogonalLoop=1;jettySize=auto;html=1;exitX=0.5;exitY=1;exitDx=0;exitDy=0;entryX=0.5;entryY=0;entryDx=0;entryDy=0;" edge="1" parent="1" source="56TDXl3lNBqsKm2BIv-D-313" target="56TDXl3lNBqsKm2BIv-D-337">
          <mxGeometry relative="1" as="geometry" />
        </mxCell>
        <mxCell id="56TDXl3lNBqsKm2BIv-D-311" style="rounded=0;orthogonalLoop=1;jettySize=auto;html=1;exitX=0.75;exitY=1;exitDx=0;exitDy=0;entryX=0.5;entryY=0;entryDx=0;entryDy=0;" edge="1" parent="1" source="56TDXl3lNBqsKm2BIv-D-313" target="56TDXl3lNBqsKm2BIv-D-339">
          <mxGeometry relative="1" as="geometry" />
        </mxCell>
        <mxCell id="56TDXl3lNBqsKm2BIv-D-312" style="rounded=0;orthogonalLoop=1;jettySize=auto;html=1;exitX=1;exitY=1;exitDx=0;exitDy=0;entryX=0;entryY=0;entryDx=0;entryDy=0;" edge="1" parent="1" source="56TDXl3lNBqsKm2BIv-D-313" target="56TDXl3lNBqsKm2BIv-D-341">
          <mxGeometry relative="1" as="geometry" />
        </mxCell>
        <mxCell id="56TDXl3lNBqsKm2BIv-D-313" value="" style="rounded=0;whiteSpace=wrap;html=1;strokeWidth=0;" vertex="1" parent="1">
          <mxGeometry x="958" y="217" width="50" height="40" as="geometry" />
        </mxCell>
        <mxCell id="56TDXl3lNBqsKm2BIv-D-314" value="&lt;font style=&quot;font-size: 40px;&quot;&gt;∅&lt;/font&gt;" style="text;html=1;align=center;verticalAlign=middle;resizable=0;points=[];autosize=1;strokeColor=none;fillColor=none;" vertex="1" parent="1">
          <mxGeometry x="958" y="200" width="50" height="60" as="geometry" />
        </mxCell>
        <mxCell id="56TDXl3lNBqsKm2BIv-D-326" value="&lt;font style=&quot;font-size: 18px;&quot;&gt;level 0&lt;/font&gt;" style="text;html=1;align=center;verticalAlign=middle;resizable=0;points=[];autosize=1;strokeColor=none;fillColor=none;" vertex="1" parent="1">
          <mxGeometry x="1048" y="220" width="80" height="40" as="geometry" />
        </mxCell>
        <mxCell id="56TDXl3lNBqsKm2BIv-D-329" value="&lt;font style=&quot;font-size: 17px;&quot;&gt;1&lt;/font&gt;" style="ellipse;whiteSpace=wrap;html=1;aspect=fixed;fillColor=#dae8fc;strokeColor=#6c8ebf;" vertex="1" parent="1">
          <mxGeometry x="748" y="347" width="40" height="40" as="geometry" />
        </mxCell>
        <mxCell id="56TDXl3lNBqsKm2BIv-D-330" style="rounded=0;orthogonalLoop=1;jettySize=auto;html=1;exitX=0;exitY=1;exitDx=0;exitDy=0;endArrow=none;endFill=0;" edge="1" parent="1" source="56TDXl3lNBqsKm2BIv-D-333">
          <mxGeometry relative="1" as="geometry">
            <mxPoint x="758" y="427" as="targetPoint" />
          </mxGeometry>
        </mxCell>
        <mxCell id="56TDXl3lNBqsKm2BIv-D-331" style="rounded=0;orthogonalLoop=1;jettySize=auto;html=1;exitX=0.5;exitY=1;exitDx=0;exitDy=0;endArrow=none;endFill=0;" edge="1" parent="1" source="56TDXl3lNBqsKm2BIv-D-333">
          <mxGeometry relative="1" as="geometry">
            <mxPoint x="838" y="427" as="targetPoint" />
          </mxGeometry>
        </mxCell>
        <mxCell id="56TDXl3lNBqsKm2BIv-D-332" style="rounded=0;orthogonalLoop=1;jettySize=auto;html=1;exitX=1;exitY=1;exitDx=0;exitDy=0;endArrow=none;endFill=0;" edge="1" parent="1" source="56TDXl3lNBqsKm2BIv-D-333">
          <mxGeometry relative="1" as="geometry">
            <mxPoint x="918" y="427" as="targetPoint" />
          </mxGeometry>
        </mxCell>
        <mxCell id="56TDXl3lNBqsKm2BIv-D-333" value="&lt;font style=&quot;font-size: 17px;&quot;&gt;2&lt;/font&gt;" style="ellipse;whiteSpace=wrap;html=1;aspect=fixed;fillColor=#dae8fc;strokeColor=#6c8ebf;" vertex="1" parent="1">
          <mxGeometry x="858" y="347" width="40" height="40" as="geometry" />
        </mxCell>
        <mxCell id="56TDXl3lNBqsKm2BIv-D-337" value="&lt;font style=&quot;font-size: 17px;&quot;&gt;3&lt;/font&gt;" style="ellipse;whiteSpace=wrap;html=1;aspect=fixed;fillColor=#dae8fc;strokeColor=#6c8ebf;" vertex="1" parent="1">
          <mxGeometry x="963" y="347" width="45" height="45" as="geometry" />
        </mxCell>
        <mxCell id="56TDXl3lNBqsKm2BIv-D-339" value="&lt;font style=&quot;font-size: 17px;&quot;&gt;4&lt;/font&gt;" style="ellipse;whiteSpace=wrap;html=1;aspect=fixed;fillColor=#dae8fc;strokeColor=#6c8ebf;" vertex="1" parent="1">
          <mxGeometry x="1068" y="347" width="40" height="40" as="geometry" />
        </mxCell>
        <mxCell id="56TDXl3lNBqsKm2BIv-D-340" style="rounded=0;orthogonalLoop=1;jettySize=auto;html=1;exitX=1;exitY=1;exitDx=0;exitDy=0;endArrow=none;endFill=0;" edge="1" parent="1" source="56TDXl3lNBqsKm2BIv-D-341">
          <mxGeometry relative="1" as="geometry">
            <mxPoint x="1318" y="427" as="targetPoint" />
          </mxGeometry>
        </mxCell>
        <mxCell id="56TDXl3lNBqsKm2BIv-D-341" value="&lt;font style=&quot;font-size: 17px;&quot;&gt;5&lt;/font&gt;" style="ellipse;whiteSpace=wrap;html=1;aspect=fixed;fillColor=#dae8fc;strokeColor=#6c8ebf;" vertex="1" parent="1">
          <mxGeometry x="1178" y="347" width="40" height="40" as="geometry" />
        </mxCell>
        <mxCell id="56TDXl3lNBqsKm2BIv-D-348" style="edgeStyle=orthogonalEdgeStyle;rounded=0;orthogonalLoop=1;jettySize=auto;html=1;exitX=1;exitY=0.5;exitDx=0;exitDy=0;entryX=0;entryY=0.5;entryDx=0;entryDy=0;endArrow=none;endFill=0;" edge="1" parent="1" source="56TDXl3lNBqsKm2BIv-D-350" target="56TDXl3lNBqsKm2BIv-D-352">
          <mxGeometry relative="1" as="geometry" />
        </mxCell>
        <mxCell id="56TDXl3lNBqsKm2BIv-D-349" style="rounded=0;orthogonalLoop=1;jettySize=auto;html=1;endArrow=none;endFill=0;" edge="1" parent="1">
          <mxGeometry relative="1" as="geometry">
            <mxPoint x="794" y="507" as="targetPoint" />
            <mxPoint x="748" y="457" as="sourcePoint" />
          </mxGeometry>
        </mxCell>
        <mxCell id="56TDXl3lNBqsKm2BIv-D-350" value="&lt;font style=&quot;font-size: 17px;&quot;&gt;2&lt;/font&gt;" style="ellipse;whiteSpace=wrap;html=1;aspect=fixed;fillColor=#dae8fc;strokeColor=#6c8ebf;" vertex="1" parent="1">
          <mxGeometry x="710" y="427" width="30" height="30" as="geometry" />
        </mxCell>
        <mxCell id="56TDXl3lNBqsKm2BIv-D-351" style="rounded=0;orthogonalLoop=1;jettySize=auto;html=1;endArrow=none;endFill=0;" edge="1" parent="1">
          <mxGeometry relative="1" as="geometry">
            <mxPoint x="894" y="507" as="targetPoint" />
            <mxPoint x="748" y="457" as="sourcePoint" />
          </mxGeometry>
        </mxCell>
        <mxCell id="56TDXl3lNBqsKm2BIv-D-352" value="&lt;font style=&quot;font-size: 17px;&quot;&gt;1&lt;/font&gt;" style="ellipse;whiteSpace=wrap;html=1;aspect=fixed;fillColor=#fff2cc;strokeColor=#d6b656;" vertex="1" parent="1">
          <mxGeometry x="760" y="427" width="30" height="30" as="geometry" />
        </mxCell>
        <mxCell id="56TDXl3lNBqsKm2BIv-D-353" style="edgeStyle=orthogonalEdgeStyle;rounded=0;orthogonalLoop=1;jettySize=auto;html=1;exitX=1;exitY=0.5;exitDx=0;exitDy=0;entryX=0;entryY=0.5;entryDx=0;entryDy=0;endArrow=none;endFill=0;" edge="1" parent="1" source="56TDXl3lNBqsKm2BIv-D-354" target="56TDXl3lNBqsKm2BIv-D-355">
          <mxGeometry relative="1" as="geometry" />
        </mxCell>
        <mxCell id="56TDXl3lNBqsKm2BIv-D-354" value="&lt;font style=&quot;font-size: 17px;&quot;&gt;2&lt;/font&gt;" style="ellipse;whiteSpace=wrap;html=1;aspect=fixed;fillColor=#f5f5f5;strokeColor=#666666;fontColor=#333333;" vertex="1" parent="1">
          <mxGeometry x="886" y="427" width="30" height="30" as="geometry" />
        </mxCell>
        <mxCell id="56TDXl3lNBqsKm2BIv-D-355" value="&lt;font style=&quot;font-size: 17px;&quot;&gt;4&lt;/font&gt;" style="ellipse;whiteSpace=wrap;html=1;aspect=fixed;fillColor=#f5f5f5;fontColor=#333333;strokeColor=#666666;" vertex="1" parent="1">
          <mxGeometry x="936" y="427" width="30" height="30" as="geometry" />
        </mxCell>
        <mxCell id="56TDXl3lNBqsKm2BIv-D-356" style="edgeStyle=orthogonalEdgeStyle;rounded=0;orthogonalLoop=1;jettySize=auto;html=1;exitX=1;exitY=0.5;exitDx=0;exitDy=0;entryX=0;entryY=0.5;entryDx=0;entryDy=0;endArrow=none;endFill=0;" edge="1" parent="1" source="56TDXl3lNBqsKm2BIv-D-357" target="56TDXl3lNBqsKm2BIv-D-358">
          <mxGeometry relative="1" as="geometry" />
        </mxCell>
        <mxCell id="56TDXl3lNBqsKm2BIv-D-357" value="&lt;font style=&quot;font-size: 17px;&quot;&gt;2&lt;/font&gt;" style="ellipse;whiteSpace=wrap;html=1;aspect=fixed;fillColor=#f5f5f5;strokeColor=#666666;fontColor=#333333;" vertex="1" parent="1">
          <mxGeometry x="798" y="427" width="30" height="30" as="geometry" />
        </mxCell>
        <mxCell id="56TDXl3lNBqsKm2BIv-D-358" value="&lt;font style=&quot;font-size: 17px;&quot;&gt;3&lt;/font&gt;" style="ellipse;whiteSpace=wrap;html=1;aspect=fixed;fillColor=#f5f5f5;fontColor=#333333;strokeColor=#666666;" vertex="1" parent="1">
          <mxGeometry x="848" y="427" width="30" height="30" as="geometry" />
        </mxCell>
        <mxCell id="56TDXl3lNBqsKm2BIv-D-372" value="&lt;font style=&quot;font-size: 20px;&quot;&gt;...&lt;/font&gt;" style="text;html=1;align=center;verticalAlign=middle;resizable=0;points=[];autosize=1;strokeColor=none;fillColor=none;" vertex="1" parent="1">
          <mxGeometry x="1248" y="420" width="40" height="40" as="geometry" />
        </mxCell>
        <mxCell id="56TDXl3lNBqsKm2BIv-D-374" style="edgeStyle=orthogonalEdgeStyle;rounded=0;orthogonalLoop=1;jettySize=auto;html=1;exitX=1;exitY=0.5;exitDx=0;exitDy=0;entryX=0;entryY=0.5;entryDx=0;entryDy=0;endArrow=none;endFill=0;" edge="1" parent="1" source="56TDXl3lNBqsKm2BIv-D-375" target="56TDXl3lNBqsKm2BIv-D-376">
          <mxGeometry relative="1" as="geometry" />
        </mxCell>
        <mxCell id="56TDXl3lNBqsKm2BIv-D-375" value="&lt;font style=&quot;font-size: 17px;&quot;&gt;2&lt;/font&gt;" style="ellipse;whiteSpace=wrap;html=1;aspect=fixed;fillColor=#dae8fc;strokeColor=#6c8ebf;" vertex="1" parent="1">
          <mxGeometry x="748" y="508" width="30" height="30" as="geometry" />
        </mxCell>
        <mxCell id="56TDXl3lNBqsKm2BIv-D-376" value="&lt;font style=&quot;font-size: 17px;&quot;&gt;1&lt;/font&gt;" style="ellipse;whiteSpace=wrap;html=1;aspect=fixed;fillColor=#fff2cc;strokeColor=#d6b656;" vertex="1" parent="1">
          <mxGeometry x="798" y="508" width="30" height="30" as="geometry" />
        </mxCell>
        <mxCell id="56TDXl3lNBqsKm2BIv-D-377" style="rounded=0;orthogonalLoop=1;jettySize=auto;html=1;exitX=1;exitY=0;exitDx=0;exitDy=0;entryX=0.5;entryY=1;entryDx=0;entryDy=0;endArrow=none;endFill=0;" edge="1" parent="1" source="56TDXl3lNBqsKm2BIv-D-380" target="56TDXl3lNBqsKm2BIv-D-376">
          <mxGeometry relative="1" as="geometry" />
        </mxCell>
        <mxCell id="56TDXl3lNBqsKm2BIv-D-378" style="rounded=0;orthogonalLoop=1;jettySize=auto;html=1;exitX=0;exitY=0;exitDx=0;exitDy=0;entryX=0.5;entryY=1;entryDx=0;entryDy=0;endArrow=none;endFill=0;" edge="1" parent="1" source="56TDXl3lNBqsKm2BIv-D-380" target="56TDXl3lNBqsKm2BIv-D-375">
          <mxGeometry relative="1" as="geometry" />
        </mxCell>
        <mxCell id="56TDXl3lNBqsKm2BIv-D-379" style="rounded=0;orthogonalLoop=1;jettySize=auto;html=1;endArrow=none;endFill=0;" edge="1" parent="1">
          <mxGeometry relative="1" as="geometry">
            <mxPoint x="786" y="637" as="targetPoint" />
            <mxPoint x="786" y="597" as="sourcePoint" />
          </mxGeometry>
        </mxCell>
        <mxCell id="56TDXl3lNBqsKm2BIv-D-380" value="&lt;font style=&quot;font-size: 17px;&quot;&gt;3&lt;/font&gt;" style="ellipse;whiteSpace=wrap;html=1;aspect=fixed;fillColor=#f8cecc;strokeColor=#b85450;" vertex="1" parent="1">
          <mxGeometry x="768" y="558" width="30" height="30" as="geometry" />
        </mxCell>
        <mxCell id="56TDXl3lNBqsKm2BIv-D-381" style="edgeStyle=orthogonalEdgeStyle;rounded=0;orthogonalLoop=1;jettySize=auto;html=1;exitX=1;exitY=0.5;exitDx=0;exitDy=0;entryX=0;entryY=0.5;entryDx=0;entryDy=0;endArrow=none;endFill=0;" edge="1" parent="1" source="56TDXl3lNBqsKm2BIv-D-382" target="56TDXl3lNBqsKm2BIv-D-383">
          <mxGeometry relative="1" as="geometry" />
        </mxCell>
        <mxCell id="56TDXl3lNBqsKm2BIv-D-382" value="&lt;font style=&quot;font-size: 17px;&quot;&gt;2&lt;/font&gt;" style="ellipse;whiteSpace=wrap;html=1;aspect=fixed;fillColor=#dae8fc;strokeColor=#6c8ebf;" vertex="1" parent="1">
          <mxGeometry x="848" y="508" width="30" height="30" as="geometry" />
        </mxCell>
        <mxCell id="56TDXl3lNBqsKm2BIv-D-383" value="&lt;font style=&quot;font-size: 17px;&quot;&gt;1&lt;/font&gt;" style="ellipse;whiteSpace=wrap;html=1;aspect=fixed;fillColor=#fff2cc;strokeColor=#d6b656;" vertex="1" parent="1">
          <mxGeometry x="898" y="508" width="30" height="30" as="geometry" />
        </mxCell>
        <mxCell id="56TDXl3lNBqsKm2BIv-D-384" style="rounded=0;orthogonalLoop=1;jettySize=auto;html=1;exitX=1;exitY=0;exitDx=0;exitDy=0;entryX=0.5;entryY=1;entryDx=0;entryDy=0;endArrow=none;endFill=0;" edge="1" parent="1" source="56TDXl3lNBqsKm2BIv-D-385" target="56TDXl3lNBqsKm2BIv-D-383">
          <mxGeometry relative="1" as="geometry" />
        </mxCell>
        <mxCell id="56TDXl3lNBqsKm2BIv-D-385" value="&lt;font style=&quot;font-size: 17px;&quot;&gt;4&lt;/font&gt;" style="ellipse;whiteSpace=wrap;html=1;aspect=fixed;fillColor=#f8cecc;strokeColor=#b85450;" vertex="1" parent="1">
          <mxGeometry x="868" y="558" width="30" height="30" as="geometry" />
        </mxCell>
        <mxCell id="56TDXl3lNBqsKm2BIv-D-386" value="" style="verticalLabelPosition=bottom;verticalAlign=top;html=1;shape=mxgraph.basic.x;fillColor=#d80073;fontColor=#ffffff;strokeColor=#A50040;" vertex="1" parent="1">
          <mxGeometry x="893" y="563" width="40" height="30" as="geometry" />
        </mxCell>
        <mxCell id="56TDXl3lNBqsKm2BIv-D-414" style="edgeStyle=orthogonalEdgeStyle;rounded=0;orthogonalLoop=1;jettySize=auto;html=1;exitX=1;exitY=0.5;exitDx=0;exitDy=0;entryX=0;entryY=0.5;entryDx=0;entryDy=0;endArrow=none;endFill=0;" edge="1" parent="1" source="56TDXl3lNBqsKm2BIv-D-417" target="56TDXl3lNBqsKm2BIv-D-419">
          <mxGeometry relative="1" as="geometry" />
        </mxCell>
        <mxCell id="56TDXl3lNBqsKm2BIv-D-415" style="rounded=0;orthogonalLoop=1;jettySize=auto;html=1;exitX=0.5;exitY=1;exitDx=0;exitDy=0;entryX=0.5;entryY=0;entryDx=0;entryDy=0;endArrow=none;endFill=0;" edge="1" parent="1" source="56TDXl3lNBqsKm2BIv-D-417" target="56TDXl3lNBqsKm2BIv-D-421">
          <mxGeometry relative="1" as="geometry" />
        </mxCell>
        <mxCell id="56TDXl3lNBqsKm2BIv-D-416" style="rounded=0;orthogonalLoop=1;jettySize=auto;html=1;exitX=1;exitY=1;exitDx=0;exitDy=0;entryX=0;entryY=0;entryDx=0;entryDy=0;endArrow=none;endFill=0;" edge="1" parent="1" source="56TDXl3lNBqsKm2BIv-D-417" target="56TDXl3lNBqsKm2BIv-D-422">
          <mxGeometry relative="1" as="geometry" />
        </mxCell>
        <mxCell id="56TDXl3lNBqsKm2BIv-D-417" value="&lt;font style=&quot;font-size: 17px;&quot;&gt;2&lt;/font&gt;" style="ellipse;whiteSpace=wrap;html=1;aspect=fixed;fillColor=#dae8fc;strokeColor=#6c8ebf;" vertex="1" parent="1">
          <mxGeometry x="750" y="643" width="30" height="30" as="geometry" />
        </mxCell>
        <mxCell id="56TDXl3lNBqsKm2BIv-D-418" style="rounded=0;orthogonalLoop=1;jettySize=auto;html=1;exitX=0;exitY=1;exitDx=0;exitDy=0;entryX=1;entryY=0;entryDx=0;entryDy=0;endArrow=none;endFill=0;" edge="1" parent="1" source="56TDXl3lNBqsKm2BIv-D-419" target="56TDXl3lNBqsKm2BIv-D-421">
          <mxGeometry relative="1" as="geometry" />
        </mxCell>
        <mxCell id="56TDXl3lNBqsKm2BIv-D-419" value="&lt;font style=&quot;font-size: 17px;&quot;&gt;1&lt;/font&gt;" style="ellipse;whiteSpace=wrap;html=1;aspect=fixed;fillColor=#fff2cc;strokeColor=#d6b656;" vertex="1" parent="1">
          <mxGeometry x="800" y="643" width="30" height="30" as="geometry" />
        </mxCell>
        <mxCell id="56TDXl3lNBqsKm2BIv-D-420" style="edgeStyle=orthogonalEdgeStyle;rounded=0;orthogonalLoop=1;jettySize=auto;html=1;exitX=1;exitY=0.5;exitDx=0;exitDy=0;entryX=0;entryY=0.5;entryDx=0;entryDy=0;endArrow=none;endFill=0;" edge="1" parent="1" source="56TDXl3lNBqsKm2BIv-D-421" target="56TDXl3lNBqsKm2BIv-D-422">
          <mxGeometry relative="1" as="geometry" />
        </mxCell>
        <mxCell id="56TDXl3lNBqsKm2BIv-D-421" value="&lt;font style=&quot;font-size: 17px;&quot;&gt;3&lt;/font&gt;" style="ellipse;whiteSpace=wrap;html=1;aspect=fixed;fillColor=#f8cecc;strokeColor=#b85450;" vertex="1" parent="1">
          <mxGeometry x="750" y="703" width="30" height="30" as="geometry" />
        </mxCell>
        <mxCell id="56TDXl3lNBqsKm2BIv-D-422" value="&lt;font style=&quot;font-size: 17px;&quot;&gt;4&lt;/font&gt;" style="ellipse;whiteSpace=wrap;html=1;aspect=fixed;fillColor=#e1d5e7;strokeColor=#9673a6;" vertex="1" parent="1">
          <mxGeometry x="800" y="703" width="30" height="30" as="geometry" />
        </mxCell>
        <mxCell id="56TDXl3lNBqsKm2BIv-D-471" value="" style="verticalLabelPosition=bottom;verticalAlign=top;html=1;shape=mxgraph.basic.tick;fillColor=#66FF66;fontColor=#ffffff;strokeColor=#006EAF;" vertex="1" parent="1">
          <mxGeometry x="815" y="703" width="45" height="55" as="geometry" />
        </mxCell>
        <mxCell id="56TDXl3lNBqsKm2BIv-D-475" value="&lt;font style=&quot;font-size: 30px;&quot;&gt;...&lt;/font&gt;" style="text;html=1;align=center;verticalAlign=middle;resizable=0;points=[];autosize=1;strokeColor=none;fillColor=none;" vertex="1" parent="1">
          <mxGeometry x="-113" y="488" width="50" height="50" as="geometry" />
        </mxCell>
        <mxCell id="56TDXl3lNBqsKm2BIv-D-476" value="&lt;font style=&quot;font-size: 30px;&quot;&gt;...&lt;/font&gt;" style="text;html=1;align=center;verticalAlign=middle;resizable=0;points=[];autosize=1;strokeColor=none;fillColor=none;" vertex="1" parent="1">
          <mxGeometry x="111" y="497" width="50" height="50" as="geometry" />
        </mxCell>
        <mxCell id="56TDXl3lNBqsKm2BIv-D-477" value="&lt;font style=&quot;font-size: 30px;&quot;&gt;...&lt;/font&gt;" style="text;html=1;align=center;verticalAlign=middle;resizable=0;points=[];autosize=1;strokeColor=none;fillColor=none;" vertex="1" parent="1">
          <mxGeometry x="364" y="488" width="50" height="50" as="geometry" />
        </mxCell>
        <mxCell id="56TDXl3lNBqsKm2BIv-D-478" value="&lt;font style=&quot;font-size: 30px;&quot;&gt;...&lt;/font&gt;" style="text;html=1;align=center;verticalAlign=middle;resizable=0;points=[];autosize=1;strokeColor=none;fillColor=none;" vertex="1" parent="1">
          <mxGeometry x="536" y="480" width="50" height="50" as="geometry" />
        </mxCell>
        <mxCell id="56TDXl3lNBqsKm2BIv-D-479" value="&lt;font style=&quot;font-size: 30px;&quot;&gt;...&lt;/font&gt;" style="text;html=1;align=center;verticalAlign=middle;resizable=0;points=[];autosize=1;strokeColor=none;fillColor=none;" vertex="1" parent="1">
          <mxGeometry x="1004" y="410" width="50" height="50" as="geometry" />
        </mxCell>
        <mxCell id="56TDXl3lNBqsKm2BIv-D-480" value="&lt;font style=&quot;font-size: 30px;&quot;&gt;...&lt;/font&gt;" style="text;html=1;align=center;verticalAlign=middle;resizable=0;points=[];autosize=1;strokeColor=none;fillColor=none;" vertex="1" parent="1">
          <mxGeometry x="1092" y="410" width="50" height="50" as="geometry" />
        </mxCell>
        <mxCell id="56TDXl3lNBqsKm2BIv-D-481" value="&lt;font style=&quot;font-size: 30px;&quot;&gt;...&lt;/font&gt;" style="text;html=1;align=center;verticalAlign=middle;resizable=0;points=[];autosize=1;strokeColor=none;fillColor=none;" vertex="1" parent="1">
          <mxGeometry x="914" y="447" width="50" height="50" as="geometry" />
        </mxCell>
        <mxCell id="56TDXl3lNBqsKm2BIv-D-482" value="&lt;font style=&quot;font-size: 40px;&quot;&gt;BFS&lt;/font&gt;" style="text;html=1;align=center;verticalAlign=middle;whiteSpace=wrap;rounded=0;" vertex="1" parent="1">
          <mxGeometry x="130" y="670" width="137" height="63" as="geometry" />
        </mxCell>
        <mxCell id="56TDXl3lNBqsKm2BIv-D-483" value="&lt;font style=&quot;font-size: 40px;&quot;&gt;DFS&lt;/font&gt;" style="text;html=1;align=center;verticalAlign=middle;whiteSpace=wrap;rounded=0;" vertex="1" parent="1">
          <mxGeometry x="997" y="666.5" width="111" height="60" as="geometry" />
        </mxCell>
        <mxCell id="56TDXl3lNBqsKm2BIv-D-484" value="" style="shape=singleArrow;whiteSpace=wrap;html=1;fillColor=#6a00ff;fontColor=#ffffff;strokeColor=#3700CC;arrowWidth=0.33333206176757624;arrowSize=0.3074835641043478;" vertex="1" parent="1">
          <mxGeometry x="623" y="320" width="70" height="60" as="geometry" />
        </mxCell>
      </root>
    </mxGraphModel>
  </diagram>
</mxfile>
